STARTFONT 2.1
COMMENT Originally a BSD vfont.
FONT Holnormal-18
SIZE 18 72 72
FONTBOUNDINGBOX 16 18 0 -5
STARTPROPERTIES 6
FONT_ASCENT 13
FONT_DESCENT 5
DEFAULT_CHAR 0
RESOLUTION 72
POINT_SIZE 180
FONT "Holnormal"
ENDPROPERTIES
CHARS 256
STARTCHAR <unknown>
ENCODING 0
SWIDTH 42 0
DWIDTH 0 0
BBX 0 0 0 0
BITMAP
ENDCHAR
STARTCHAR <unknown>
ENCODING 1
SWIDTH 42 0
DWIDTH 0 0
BBX 0 0 0 0
BITMAP
ENDCHAR
STARTCHAR <unknown>
ENCODING 2
SWIDTH 42 0
DWIDTH 0 0
BBX 0 0 0 0
BITMAP
ENDCHAR
STARTCHAR <unknown>
ENCODING 3
SWIDTH 42 0
DWIDTH 0 0
BBX 0 0 0 0
BITMAP
ENDCHAR
STARTCHAR <unknown>
ENCODING 4
SWIDTH 42 0
DWIDTH 0 0
BBX 0 0 0 0
BITMAP
ENDCHAR
STARTCHAR <unknown>
ENCODING 5
SWIDTH 42 0
DWIDTH 0 0
BBX 0 0 0 0
BITMAP
ENDCHAR
STARTCHAR <unknown>
ENCODING 6
SWIDTH 42 0
DWIDTH 0 0
BBX 0 0 0 0
BITMAP
ENDCHAR
STARTCHAR <unknown>
ENCODING 7
SWIDTH 42 0
DWIDTH 0 0
BBX 0 0 0 0
BITMAP
ENDCHAR
STARTCHAR <unknown>
ENCODING 8
SWIDTH 42 0
DWIDTH 0 0
BBX 0 0 0 0
BITMAP
ENDCHAR
STARTCHAR <unknown>
ENCODING 9
SWIDTH 42 0
DWIDTH 0 0
BBX 0 0 0 0
BITMAP
ENDCHAR
STARTCHAR <unknown>
ENCODING 10
SWIDTH 42 0
DWIDTH 0 0
BBX 0 0 0 0
BITMAP
ENDCHAR
STARTCHAR <unknown>
ENCODING 11
SWIDTH 42 0
DWIDTH 0 0
BBX 0 0 0 0
BITMAP
ENDCHAR
STARTCHAR <unknown>
ENCODING 12
SWIDTH 42 0
DWIDTH 0 0
BBX 0 0 0 0
BITMAP
ENDCHAR
STARTCHAR <unknown>
ENCODING 13
SWIDTH 42 0
DWIDTH 0 0
BBX 0 0 0 0
BITMAP
ENDCHAR
STARTCHAR <unknown>
ENCODING 14
SWIDTH 42 0
DWIDTH 0 0
BBX 0 0 0 0
BITMAP
ENDCHAR
STARTCHAR <unknown>
ENCODING 15
SWIDTH 42 0
DWIDTH 0 0
BBX 0 0 0 0
BITMAP
ENDCHAR
STARTCHAR <unknown>
ENCODING 16
SWIDTH 42 0
DWIDTH 0 0
BBX 0 0 0 0
BITMAP
ENDCHAR
STARTCHAR <unknown>
ENCODING 17
SWIDTH 42 0
DWIDTH 0 0
BBX 0 0 0 0
BITMAP
ENDCHAR
STARTCHAR <unknown>
ENCODING 18
SWIDTH 42 0
DWIDTH 0 0
BBX 0 0 0 0
BITMAP
ENDCHAR
STARTCHAR <unknown>
ENCODING 19
SWIDTH 42 0
DWIDTH 0 0
BBX 0 0 0 0
BITMAP
ENDCHAR
STARTCHAR <unknown>
ENCODING 20
SWIDTH 42 0
DWIDTH 0 0
BBX 0 0 0 0
BITMAP
ENDCHAR
STARTCHAR <unknown>
ENCODING 21
SWIDTH 42 0
DWIDTH 0 0
BBX 0 0 0 0
BITMAP
ENDCHAR
STARTCHAR <unknown>
ENCODING 22
SWIDTH 42 0
DWIDTH 0 0
BBX 0 0 0 0
BITMAP
ENDCHAR
STARTCHAR <unknown>
ENCODING 23
SWIDTH 42 0
DWIDTH 0 0
BBX 0 0 0 0
BITMAP
ENDCHAR
STARTCHAR <unknown>
ENCODING 24
SWIDTH 42 0
DWIDTH 0 0
BBX 0 0 0 0
BITMAP
ENDCHAR
STARTCHAR <unknown>
ENCODING 25
SWIDTH 42 0
DWIDTH 0 0
BBX 0 0 0 0
BITMAP
ENDCHAR
STARTCHAR <unknown>
ENCODING 26
SWIDTH 42 0
DWIDTH 0 0
BBX 0 0 0 0
BITMAP
ENDCHAR
STARTCHAR <unknown>
ENCODING 27
SWIDTH 42 0
DWIDTH 0 0
BBX 0 0 0 0
BITMAP
ENDCHAR
STARTCHAR <unknown>
ENCODING 28
SWIDTH 42 0
DWIDTH 0 0
BBX 0 0 0 0
BITMAP
ENDCHAR
STARTCHAR <unknown>
ENCODING 29
SWIDTH 42 0
DWIDTH 0 0
BBX 0 0 0 0
BITMAP
ENDCHAR
STARTCHAR <unknown>
ENCODING 30
SWIDTH 42 0
DWIDTH 0 0
BBX 0 0 0 0
BITMAP
ENDCHAR
STARTCHAR <unknown>
ENCODING 31
SWIDTH 42 0
DWIDTH 0 0
BBX 0 0 0 0
BITMAP
ENDCHAR
STARTCHAR <unknown>
ENCODING 32
SWIDTH 42 0
DWIDTH 9 0
BBX 3 12 3 0
BITMAP
00
00
00
00
00
00
00
00
00
00
00
00
ENDCHAR
STARTCHAR <unknown>
ENCODING 33
SWIDTH 42 0
DWIDTH 9 0
BBX 3 12 3 0
BITMAP
40
e0
e0
e0
e0
40
40
40
00
00
40
40
ENDCHAR
STARTCHAR <unknown>
ENCODING 34
SWIDTH 42 0
DWIDTH 9 0
BBX 4 4 3 8
BITMAP
90
90
90
90
ENDCHAR
STARTCHAR <unknown>
ENCODING 35
SWIDTH 42 0
DWIDTH 9 0
BBX 8 11 1 0
BITMAP
12
12
12
7f
24
24
24
fe
48
48
48
ENDCHAR
STARTCHAR <unknown>
ENCODING 36
SWIDTH 42 0
DWIDTH 9 0
BBX 7 14 1 -2
BITMAP
10
10
7a
86
82
40
30
0c
02
82
c2
bc
10
10
ENDCHAR
STARTCHAR <unknown>
ENCODING 37
SWIDTH 42 0
DWIDTH 9 0
BBX 7 11 1 0
BITMAP
60
90
92
94
68
10
2c
52
92
12
0c
ENDCHAR
STARTCHAR <unknown>
ENCODING 38
SWIDTH 42 0
DWIDTH 9 0
BBX 8 11 1 0
BITMAP
30
48
40
40
20
52
8c
84
84
8a
73
ENDCHAR
STARTCHAR <unknown>
ENCODING 39
SWIDTH 42 0
DWIDTH 9 0
BBX 3 4 3 8
BITMAP
20
20
40
80
ENDCHAR
STARTCHAR <unknown>
ENCODING 40
SWIDTH 42 0
DWIDTH 9 0
BBX 4 14 3 -2
BITMAP
10
20
40
40
80
80
80
80
80
80
40
40
20
10
ENDCHAR
STARTCHAR <unknown>
ENCODING 41
SWIDTH 42 0
DWIDTH 9 0
BBX 4 14 3 -2
BITMAP
80
40
20
20
10
10
10
10
10
10
20
20
40
80
ENDCHAR
STARTCHAR <unknown>
ENCODING 42
SWIDTH 42 0
DWIDTH 9 0
BBX 7 7 1 3
BITMAP
10
10
ba
7c
38
28
44
ENDCHAR
STARTCHAR <unknown>
ENCODING 43
SWIDTH 42 0
DWIDTH 9 0
BBX 7 7 1 2
BITMAP
10
10
10
fe
10
10
10
ENDCHAR
STARTCHAR <unknown>
ENCODING 44
SWIDTH 42 0
DWIDTH 9 0
BBX 3 5 3 -3
BITMAP
60
60
20
40
80
ENDCHAR
STARTCHAR <unknown>
ENCODING 45
SWIDTH 42 0
DWIDTH 9 0
BBX 7 1 1 5
BITMAP
fe
ENDCHAR
STARTCHAR <unknown>
ENCODING 46
SWIDTH 42 0
DWIDTH 9 0
BBX 2 2 4 0
BITMAP
c0
c0
ENDCHAR
STARTCHAR <unknown>
ENCODING 47
SWIDTH 42 0
DWIDTH 9 0
BBX 7 13 1 -1
BITMAP
02
04
04
08
08
10
10
20
20
40
40
80
80
ENDCHAR
STARTCHAR <unknown>
ENCODING 48
SWIDTH 42 0
DWIDTH 9 0
BBX 6 11 2 0
BITMAP
78
84
84
84
84
84
84
84
84
84
78
ENDCHAR
STARTCHAR <unknown>
ENCODING 49
SWIDTH 42 0
DWIDTH 9 0
BBX 5 11 2 0
BITMAP
20
60
a0
20
20
20
20
20
20
20
f8
ENDCHAR
STARTCHAR <unknown>
ENCODING 50
SWIDTH 42 0
DWIDTH 9 0
BBX 7 11 1 0
BITMAP
3c
46
82
82
04
08
10
20
40
82
fe
ENDCHAR
STARTCHAR <unknown>
ENCODING 51
SWIDTH 42 0
DWIDTH 9 0
BBX 7 11 1 0
BITMAP
3c
46
42
02
04
1c
06
02
82
c4
78
ENDCHAR
STARTCHAR <unknown>
ENCODING 52
SWIDTH 42 0
DWIDTH 9 0
BBX 7 12 1 0
BITMAP
08
10
10
24
24
44
44
84
fe
04
04
04
ENDCHAR
STARTCHAR <unknown>
ENCODING 53
SWIDTH 42 0
DWIDTH 9 0
BBX 7 11 1 0
BITMAP
7e
40
40
40
7c
06
02
02
82
c4
78
ENDCHAR
STARTCHAR <unknown>
ENCODING 54
SWIDTH 42 0
DWIDTH 9 0
BBX 7 12 1 0
BITMAP
0c
30
40
40
80
bc
c6
82
82
82
c4
78
ENDCHAR
STARTCHAR <unknown>
ENCODING 55
SWIDTH 42 0
DWIDTH 9 0
BBX 7 11 1 0
BITMAP
fe
86
84
04
08
08
08
10
10
10
10
ENDCHAR
STARTCHAR <unknown>
ENCODING 56
SWIDTH 42 0
DWIDTH 9 0
BBX 7 11 1 0
BITMAP
38
4c
84
84
c8
7c
46
82
82
c4
78
ENDCHAR
STARTCHAR <unknown>
ENCODING 57
SWIDTH 42 0
DWIDTH 9 0
BBX 7 12 1 -1
BITMAP
3c
46
82
82
82
c6
7a
02
04
04
18
60
ENDCHAR
STARTCHAR <unknown>
ENCODING 58
SWIDTH 42 0
DWIDTH 9 0
BBX 2 8 4 0
BITMAP
c0
c0
00
00
00
00
c0
c0
ENDCHAR
STARTCHAR <unknown>
ENCODING 59
SWIDTH 42 0
DWIDTH 9 0
BBX 3 11 3 -3
BITMAP
60
60
00
00
00
00
60
60
20
40
80
ENDCHAR
STARTCHAR <unknown>
ENCODING 60
SWIDTH 42 0
DWIDTH 9 0
BBX 6 11 2 0
BITMAP
04
08
10
20
40
80
40
20
10
08
04
ENDCHAR
STARTCHAR <unknown>
ENCODING 61
SWIDTH 42 0
DWIDTH 9 0
BBX 7 3 1 4
BITMAP
fe
00
fe
ENDCHAR
STARTCHAR <unknown>
ENCODING 62
SWIDTH 42 0
DWIDTH 9 0
BBX 6 11 2 0
BITMAP
80
40
20
10
08
04
08
10
20
40
80
ENDCHAR
STARTCHAR <unknown>
ENCODING 63
SWIDTH 42 0
DWIDTH 9 0
BBX 7 12 1 0
BITMAP
3c
46
82
82
04
08
10
10
00
00
10
10
ENDCHAR
STARTCHAR <unknown>
ENCODING 64
SWIDTH 42 0
DWIDTH 9 0
BBX 8 11 1 0
BITMAP
18
64
42
8e
92
92
8c
80
41
62
1c
ENDCHAR
STARTCHAR <unknown>
ENCODING 65
SWIDTH 42 0
DWIDTH 9 0
BBX 9 12 0 0
BITMAP
0800
0800
1400
1400
1400
2200
2200
2200
7f00
4100
4100
e380
ENDCHAR
STARTCHAR <unknown>
ENCODING 66
SWIDTH 42 0
DWIDTH 9 0
BBX 7 12 1 0
BITMAP
f8
44
44
44
4c
78
44
42
42
42
46
fc
ENDCHAR
STARTCHAR <unknown>
ENCODING 67
SWIDTH 42 0
DWIDTH 9 0
BBX 7 12 1 0
BITMAP
3a
46
82
80
80
80
80
80
82
82
c4
78
ENDCHAR
STARTCHAR <unknown>
ENCODING 68
SWIDTH 42 0
DWIDTH 9 0
BBX 7 12 1 0
BITMAP
fc
46
42
42
42
42
42
42
42
42
44
f8
ENDCHAR
STARTCHAR <unknown>
ENCODING 69
SWIDTH 42 0
DWIDTH 9 0
BBX 7 12 1 0
BITMAP
fe
42
40
40
40
7c
40
40
40
40
42
fe
ENDCHAR
STARTCHAR <unknown>
ENCODING 70
SWIDTH 42 0
DWIDTH 9 0
BBX 7 12 1 0
BITMAP
fe
42
40
40
40
7c
40
40
40
40
40
e0
ENDCHAR
STARTCHAR <unknown>
ENCODING 71
SWIDTH 42 0
DWIDTH 9 0
BBX 8 12 1 0
BITMAP
3a
46
82
80
80
80
80
87
82
82
c6
7a
ENDCHAR
STARTCHAR <unknown>
ENCODING 72
SWIDTH 42 0
DWIDTH 9 0
BBX 8 12 1 0
BITMAP
e7
42
42
42
42
7e
42
42
42
42
42
e7
ENDCHAR
STARTCHAR <unknown>
ENCODING 73
SWIDTH 42 0
DWIDTH 9 0
BBX 5 12 2 0
BITMAP
f8
20
20
20
20
20
20
20
20
20
20
f8
ENDCHAR
STARTCHAR <unknown>
ENCODING 74
SWIDTH 42 0
DWIDTH 9 0
BBX 8 12 1 0
BITMAP
1f
04
04
04
04
04
04
04
04
84
cc
78
ENDCHAR
STARTCHAR <unknown>
ENCODING 75
SWIDTH 42 0
DWIDTH 9 0
BBX 8 12 1 0
BITMAP
e3
42
44
48
50
68
48
44
44
42
42
e7
ENDCHAR
STARTCHAR <unknown>
ENCODING 76
SWIDTH 42 0
DWIDTH 9 0
BBX 7 12 1 0
BITMAP
e0
40
40
40
40
40
40
40
40
40
42
fe
ENDCHAR
STARTCHAR <unknown>
ENCODING 77
SWIDTH 42 0
DWIDTH 9 0
BBX 9 12 0 0
BITMAP
c180
4100
6300
6300
5500
5500
4900
4900
4100
4100
4100
e380
ENDCHAR
STARTCHAR <unknown>
ENCODING 78
SWIDTH 42 0
DWIDTH 9 0
BBX 8 12 1 0
BITMAP
c7
42
62
62
52
52
4a
4a
46
46
42
e2
ENDCHAR
STARTCHAR <unknown>
ENCODING 79
SWIDTH 42 0
DWIDTH 9 0
BBX 7 12 1 0
BITMAP
3c
46
82
82
82
82
82
82
82
82
c4
78
ENDCHAR
STARTCHAR <unknown>
ENCODING 80
SWIDTH 42 0
DWIDTH 9 0
BBX 7 12 1 0
BITMAP
fc
46
42
42
42
44
58
40
40
40
40
e0
ENDCHAR
STARTCHAR <unknown>
ENCODING 81
SWIDTH 42 0
DWIDTH 9 0
BBX 7 16 1 -4
BITMAP
3c
46
82
82
82
82
82
82
82
82
c4
78
30
10
08
06
ENDCHAR
STARTCHAR <unknown>
ENCODING 82
SWIDTH 42 0
DWIDTH 9 0
BBX 8 12 1 0
BITMAP
fc
46
42
42
42
44
78
44
44
42
42
e7
ENDCHAR
STARTCHAR <unknown>
ENCODING 83
SWIDTH 42 0
DWIDTH 9 0
BBX 7 12 1 0
BITMAP
7a
c6
82
80
c0
70
1c
06
02
82
c6
bc
ENDCHAR
STARTCHAR <unknown>
ENCODING 84
SWIDTH 42 0
DWIDTH 9 0
BBX 9 12 0 0
BITMAP
ff80
8880
0800
0800
0800
0800
0800
0800
0800
0800
0800
3e00
ENDCHAR
STARTCHAR <unknown>
ENCODING 85
SWIDTH 42 0
DWIDTH 9 0
BBX 8 12 1 0
BITMAP
e7
42
42
42
42
42
42
42
42
42
64
38
ENDCHAR
STARTCHAR <unknown>
ENCODING 86
SWIDTH 42 0
DWIDTH 9 0
BBX 9 12 0 0
BITMAP
e380
4100
4100
2200
2200
2200
1400
1400
1400
0800
0800
0800
ENDCHAR
STARTCHAR <unknown>
ENCODING 87
SWIDTH 42 0
DWIDTH 9 0
BBX 9 12 0 0
BITMAP
e380
4100
4900
4900
4900
5500
5500
3600
2200
2200
2200
2200
ENDCHAR
STARTCHAR <unknown>
ENCODING 88
SWIDTH 42 0
DWIDTH 9 0
BBX 8 12 1 0
BITMAP
e7
42
42
24
24
18
18
24
24
42
42
e7
ENDCHAR
STARTCHAR <unknown>
ENCODING 89
SWIDTH 42 0
DWIDTH 9 0
BBX 9 12 0 0
BITMAP
e380
4100
2200
2200
1400
1400
0800
0800
0800
0800
0800
1c00
ENDCHAR
STARTCHAR <unknown>
ENCODING 90
SWIDTH 42 0
DWIDTH 9 0
BBX 7 12 1 0
BITMAP
fe
84
84
08
08
10
10
20
20
42
42
fe
ENDCHAR
STARTCHAR <unknown>
ENCODING 91
SWIDTH 42 0
DWIDTH 9 0
BBX 4 14 3 -2
BITMAP
f0
80
80
80
80
80
80
80
80
80
80
80
80
f0
ENDCHAR
STARTCHAR <unknown>
ENCODING 92
SWIDTH 42 0
DWIDTH 9 0
BBX 7 13 1 -1
BITMAP
80
40
40
20
20
10
10
08
08
04
04
02
02
ENDCHAR
STARTCHAR <unknown>
ENCODING 93
SWIDTH 42 0
DWIDTH 9 0
BBX 4 14 2 -2
BITMAP
f0
10
10
10
10
10
10
10
10
10
10
10
10
f0
ENDCHAR
STARTCHAR <unknown>
ENCODING 94
SWIDTH 42 0
DWIDTH 9 0
BBX 7 4 1 7
BITMAP
10
28
44
82
ENDCHAR
STARTCHAR <unknown>
ENCODING 95
SWIDTH 42 0
DWIDTH 9 0
BBX 8 1 1 -1
BITMAP
ff
ENDCHAR
STARTCHAR <unknown>
ENCODING 96
SWIDTH 42 0
DWIDTH 9 0
BBX 3 4 3 8
BITMAP
80
80
40
20
ENDCHAR
STARTCHAR <unknown>
ENCODING 97
SWIDTH 42 0
DWIDTH 9 0
BBX 7 8 1 0
BITMAP
38
4c
04
3c
44
84
cc
76
ENDCHAR
STARTCHAR <unknown>
ENCODING 98
SWIDTH 42 0
DWIDTH 9 0
BBX 7 12 1 0
BITMAP
c0
40
40
40
5c
66
42
42
42
42
64
58
ENDCHAR
STARTCHAR <unknown>
ENCODING 99
SWIDTH 42 0
DWIDTH 9 0
BBX 7 8 1 0
BITMAP
3a
46
82
80
80
82
c4
78
ENDCHAR
STARTCHAR <unknown>
ENCODING 100
SWIDTH 42 0
DWIDTH 9 0
BBX 7 12 1 0
BITMAP
0c
04
04
04
34
4c
84
84
84
84
cc
76
ENDCHAR
STARTCHAR <unknown>
ENCODING 101
SWIDTH 42 0
DWIDTH 9 0
BBX 7 8 1 0
BITMAP
3c
46
82
fc
80
82
c4
78
ENDCHAR
STARTCHAR <unknown>
ENCODING 102
SWIDTH 42 0
DWIDTH 9 0
BBX 8 12 1 0
BITMAP
1e
31
20
20
fc
20
20
20
20
20
20
f8
ENDCHAR
STARTCHAR <unknown>
ENCODING 103
SWIDTH 42 0
DWIDTH 9 0
BBX 8 12 1 -4
BITMAP
3d
63
42
46
7c
c0
80
7e
c1
81
83
7e
ENDCHAR
STARTCHAR <unknown>
ENCODING 104
SWIDTH 42 0
DWIDTH 9 0
BBX 8 12 1 0
BITMAP
c0
40
40
40
5c
66
42
42
42
42
42
e7
ENDCHAR
STARTCHAR <unknown>
ENCODING 105
SWIDTH 42 0
DWIDTH 9 0
BBX 5 12 2 0
BITMAP
20
20
00
00
e0
20
20
20
20
20
20
f8
ENDCHAR
STARTCHAR <unknown>
ENCODING 106
SWIDTH 42 0
DWIDTH 9 0
BBX 5 16 1 -4
BITMAP
08
08
00
00
38
08
08
08
08
08
08
08
08
88
c8
70
ENDCHAR
STARTCHAR <unknown>
ENCODING 107
SWIDTH 42 0
DWIDTH 9 0
BBX 8 12 1 0
BITMAP
c0
40
40
40
46
44
48
50
68
44
42
e7
ENDCHAR
STARTCHAR <unknown>
ENCODING 108
SWIDTH 42 0
DWIDTH 9 0
BBX 5 12 2 0
BITMAP
e0
20
20
20
20
20
20
20
20
20
20
f8
ENDCHAR
STARTCHAR <unknown>
ENCODING 109
SWIDTH 42 0
DWIDTH 9 0
BBX 9 8 0 0
BITMAP
9200
6d00
4900
4900
4900
4900
4900
ed80
ENDCHAR
STARTCHAR <unknown>
ENCODING 110
SWIDTH 42 0
DWIDTH 9 0
BBX 8 8 1 0
BITMAP
dc
66
42
42
42
42
42
e7
ENDCHAR
STARTCHAR <unknown>
ENCODING 111
SWIDTH 42 0
DWIDTH 9 0
BBX 7 8 1 0
BITMAP
3c
46
82
82
82
82
c4
78
ENDCHAR
STARTCHAR <unknown>
ENCODING 112
SWIDTH 42 0
DWIDTH 9 0
BBX 7 12 1 -4
BITMAP
dc
66
42
42
42
42
64
58
40
40
40
e0
ENDCHAR
STARTCHAR <unknown>
ENCODING 113
SWIDTH 42 0
DWIDTH 9 0
BBX 7 12 1 -4
BITMAP
3a
4c
84
84
84
84
cc
74
04
04
04
0e
ENDCHAR
STARTCHAR <unknown>
ENCODING 114
SWIDTH 42 0
DWIDTH 9 0
BBX 7 8 1 0
BITMAP
dc
62
40
40
40
40
40
e0
ENDCHAR
STARTCHAR <unknown>
ENCODING 115
SWIDTH 42 0
DWIDTH 9 0
BBX 7 8 1 0
BITMAP
3a
46
42
30
0c
82
c2
bc
ENDCHAR
STARTCHAR <unknown>
ENCODING 116
SWIDTH 42 0
DWIDTH 9 0
BBX 7 12 1 0
BITMAP
20
20
20
20
fc
20
20
20
20
22
32
1c
ENDCHAR
STARTCHAR <unknown>
ENCODING 117
SWIDTH 42 0
DWIDTH 9 0
BBX 8 8 1 0
BITMAP
c6
42
42
42
42
42
66
3b
ENDCHAR
STARTCHAR <unknown>
ENCODING 118
SWIDTH 42 0
DWIDTH 9 0
BBX 7 8 1 0
BITMAP
ee
44
44
28
28
28
10
10
ENDCHAR
STARTCHAR <unknown>
ENCODING 119
SWIDTH 42 0
DWIDTH 9 0
BBX 9 8 0 0
BITMAP
e380
4900
4900
5d00
3600
2200
2200
2200
ENDCHAR
STARTCHAR <unknown>
ENCODING 120
SWIDTH 42 0
DWIDTH 9 0
BBX 8 8 1 0
BITMAP
e7
42
24
18
18
24
42
e7
ENDCHAR
STARTCHAR <unknown>
ENCODING 121
SWIDTH 42 0
DWIDTH 9 0
BBX 8 12 1 -4
BITMAP
e7
42
42
24
24
14
18
08
10
10
20
c0
ENDCHAR
STARTCHAR <unknown>
ENCODING 122
SWIDTH 42 0
DWIDTH 9 0
BBX 7 8 1 0
BITMAP
fe
84
08
10
20
40
82
fe
ENDCHAR
STARTCHAR <unknown>
ENCODING 123
SWIDTH 42 0
DWIDTH 9 0
BBX 6 14 2 -2
BITMAP
1c
20
20
20
20
20
c0
20
20
20
20
20
20
1c
ENDCHAR
STARTCHAR <unknown>
ENCODING 124
SWIDTH 42 0
DWIDTH 9 0
BBX 1 14 4 -2
BITMAP
80
80
80
80
80
80
80
80
80
80
80
80
80
80
ENDCHAR
STARTCHAR <unknown>
ENCODING 125
SWIDTH 42 0
DWIDTH 9 0
BBX 6 14 2 -2
BITMAP
e0
10
10
10
10
10
0c
10
10
10
10
10
10
e0
ENDCHAR
STARTCHAR <unknown>
ENCODING 126
SWIDTH 42 0
DWIDTH 9 0
BBX 7 3 1 8
BITMAP
62
92
8c
ENDCHAR
STARTCHAR <unknown>
ENCODING 127
SWIDTH 42 0
DWIDTH 0 0
BBX 0 0 0 0
BITMAP
ENDCHAR
STARTCHAR <unknown>
ENCODING 128
SWIDTH 42 0
DWIDTH 12 0
BBX 10 8 1 0
BITMAP
7fc0
c000
8000
8000
c000
7fc0
0000
ffc0
ENDCHAR
STARTCHAR <unknown>
ENCODING 129
SWIDTH 42 0
DWIDTH 6 0
BBX 5 9 1 0
BITMAP
80
c0
a0
90
f8
90
a0
c0
80
ENDCHAR
STARTCHAR <unknown>
ENCODING 130
SWIDTH 42 0
DWIDTH 9 0
BBX 7 8 1 0
BITMAP
92
92
fe
92
92
82
c6
7c
ENDCHAR
STARTCHAR <unknown>
ENCODING 131
SWIDTH 42 0
DWIDTH 15 0
BBX 13 16 1 -4
BITMAP
f800
8000
f000
8000
b3b8
aa20
3330
2a20
2bb8
0000
0000
1dc0
1440
1cc0
1440
1dc0
ENDCHAR
STARTCHAR <unknown>
ENCODING 132
SWIDTH 42 0
DWIDTH 14 0
BBX 12 12 1 0
BITMAP
0600
0600
0900
0900
1080
1080
2040
2040
6060
4020
c030
fff0
ENDCHAR
STARTCHAR <unknown>
ENCODING 133
SWIDTH 42 0
DWIDTH 15 0
BBX 13 16 1 -4
BITMAP
f800
8000
f000
8000
b3b8
aa20
3330
2a20
2bb8
0000
0000
1dc0
1500
1dc0
1440
1dc0
ENDCHAR
STARTCHAR <unknown>
ENCODING 134
SWIDTH 42 0
DWIDTH 11 0
BBX 9 12 1 0
BITMAP
3e00
0800
0800
3e00
4900
8880
8880
4900
3e00
0800
0800
3e00
ENDCHAR
STARTCHAR <unknown>
ENCODING 135
SWIDTH 42 0
DWIDTH 11 0
BBX 9 12 1 0
BITMAP
ff80
2180
2080
2080
2000
2000
2000
2000
2000
2000
2000
f800
ENDCHAR
STARTCHAR <unknown>
ENCODING 136
SWIDTH 42 0
DWIDTH 15 0
BBX 8 10 7 3
BITMAP
c0
c0
c0
c0
c0
c0
c0
c0
ff
ff
ENDCHAR
STARTCHAR <unknown>
ENCODING 137
SWIDTH 42 0
DWIDTH 11 0
BBX 11 10 0 -1
BITMAP
e0e0
3180
1100
1b00
0a00
0a00
0e00
0e00
0400
0400
ENDCHAR
STARTCHAR <unknown>
ENCODING 138
SWIDTH 42 0
DWIDTH 13 0
BBX 11 12 1 0
BITMAP
1f00
2080
4040
4040
9120
9f20
9120
8020
c060
4040
2080
1f00
ENDCHAR
STARTCHAR <unknown>
ENCODING 139
SWIDTH 42 0
DWIDTH 15 0
BBX 13 12 1 -1
BITMAP
0808
3608
4110
8090
0020
0020
0040
0040
0080
0080
0100
0100
ENDCHAR
STARTCHAR <unknown>
ENCODING 140
SWIDTH 42 0
DWIDTH 13 0
BBX 11 12 1 0
BITMAP
0400
0400
0a00
0a00
0a00
0a00
1100
1100
1100
2080
2080
fbe0
ENDCHAR
STARTCHAR <unknown>
ENCODING 141
SWIDTH 42 0
DWIDTH 9 0
BBX 7 7 1 0
BITMAP
3e
40
80
fe
80
40
3e
ENDCHAR
STARTCHAR <unknown>
ENCODING 142
SWIDTH 42 0
DWIDTH 9 0
BBX 7 11 1 -2
BITMAP
02
02
3e
44
88
fe
88
50
3e
20
20
ENDCHAR
STARTCHAR <unknown>
ENCODING 143
SWIDTH 42 0
DWIDTH 15 0
BBX 14 7 1 2
BITMAP
8120
4090
2048
1ffc
2048
4090
8120
ENDCHAR
STARTCHAR <unknown>
ENCODING 144
SWIDTH 42 0
DWIDTH 14 0
BBX 12 12 1 0
BITMAP
fff0
2040
2040
2040
2040
2040
2040
2040
2040
2040
2040
f9f0
ENDCHAR
STARTCHAR <unknown>
ENCODING 145
SWIDTH 42 0
DWIDTH 11 0
BBX 9 15 1 -4
BITMAP
ff00
8000
8000
8000
8000
8000
8000
8000
0000
8a00
da00
aa00
aa00
8a00
8b80
ENDCHAR
STARTCHAR <unknown>
ENCODING 146
SWIDTH 42 0
DWIDTH 6 0
BBX 5 9 1 0
BITMAP
80
c0
a0
90
88
90
a0
c0
80
ENDCHAR
STARTCHAR <unknown>
ENCODING 147
SWIDTH 42 0
DWIDTH 12 0
BBX 10 12 1 0
BITMAP
ffc0
c0c0
4040
2040
1000
1000
1800
1000
2040
2040
40c0
ffc0
ENDCHAR
STARTCHAR <unknown>
ENCODING 148
SWIDTH 42 0
DWIDTH 10 0
BBX 8 8 1 3
BITMAP
ff
80
83
83
80
80
83
83
ENDCHAR
STARTCHAR <unknown>
ENCODING 149
SWIDTH 42 0
DWIDTH 13 0
BBX 11 12 1 0
BITMAP
71c0
8a20
0400
0400
0400
0400
0400
0400
0400
0400
0400
1f00
ENDCHAR
STARTCHAR <unknown>
ENCODING 150
SWIDTH 42 0
DWIDTH 15 0
BBX 13 16 1 -4
BITMAP
f800
8000
f000
8000
b3b8
aa20
3330
2a20
2bb8
0000
0000
1dc0
1500
1dc0
0540
05c0
ENDCHAR
STARTCHAR <unknown>
ENCODING 151
SWIDTH 42 0
DWIDTH 12 0
BBX 10 12 1 0
BITMAP
1e00
6180
8040
8040
8040
8040
4080
4080
2100
a140
5280
7380
ENDCHAR
STARTCHAR <unknown>
ENCODING 152
SWIDTH 42 0
DWIDTH 11 0
BBX 9 12 1 0
BITMAP
ff80
8080
0000
0000
4100
7f00
4100
0000
0000
8080
8080
ff80
ENDCHAR
STARTCHAR <unknown>
ENCODING 153
SWIDTH 42 0
DWIDTH 13 0
BBX 11 12 1 0
BITMAP
1f00
0400
c460
4440
4440
4440
4440
2480
1f00
0400
0400
1f00
ENDCHAR
STARTCHAR <unknown>
ENCODING 154
SWIDTH 42 0
DWIDTH 9 0
BBX 9 14 0 -1
BITMAP
0080
1f00
2300
4300
4300
4500
4900
4900
5100
6100
6100
6200
7c00
8000
ENDCHAR
STARTCHAR <unknown>
ENCODING 155
SWIDTH 42 0
DWIDTH 11 0
BBX 11 10 0 -1
BITMAP
0400
0400
0e00
0a00
0a00
0a00
1b00
1100
3180
e0e0
ENDCHAR
STARTCHAR <unknown>
ENCODING 156
SWIDTH 42 0
DWIDTH 16 0
BBX 16 6 0 -1
BITMAP
ffff
ffff
0000
0000
ffff
ffff
ENDCHAR
STARTCHAR <unknown>
ENCODING 157
SWIDTH 42 0
DWIDTH 15 0
BBX 8 10 7 -5
BITMAP
ff
ff
c0
c0
ff
ff
c0
c0
c0
c0
ENDCHAR
STARTCHAR <unknown>
ENCODING 158
SWIDTH 42 0
DWIDTH 15 0
BBX 14 7 1 2
BITMAP
8520
4510
2508
1ffc
2508
4510
8520
ENDCHAR
STARTCHAR <unknown>
ENCODING 159
SWIDTH 42 0
DWIDTH 15 0
BBX 14 7 1 2
BITMAP
0520
0510
0508
fffc
0508
0510
0520
ENDCHAR
STARTCHAR <unknown>
ENCODING 160
SWIDTH 42 0
DWIDTH 12 0
BBX 10 6 1 2
BITMAP
7fc0
c000
8000
8000
c000
7fc0
ENDCHAR
STARTCHAR <unknown>
ENCODING 161
SWIDTH 42 0
DWIDTH 9 0
BBX 7 8 1 0
BITMAP
7c
c6
82
82
82
82
82
82
ENDCHAR
STARTCHAR <unknown>
ENCODING 162
SWIDTH 42 0
DWIDTH 6 0
BBX 4 15 1 -2
BITMAP
80
80
40
40
20
20
10
10
10
20
20
40
40
80
80
ENDCHAR
STARTCHAR <unknown>
ENCODING 163
SWIDTH 42 0
DWIDTH 11 0
BBX 9 9 1 0
BITMAP
ff80
c180
a280
9480
8880
9480
a280
c180
ff80
ENDCHAR
STARTCHAR <unknown>
ENCODING 164
SWIDTH 42 0
DWIDTH 16 0
BBX 14 7 1 2
BITMAP
1020
2010
7ff8
8004
7ff8
2010
1020
ENDCHAR
STARTCHAR <unknown>
ENCODING 165
SWIDTH 42 0
DWIDTH 12 0
BBX 10 10 1 -1
BITMAP
3f00
7f80
e1c0
c0c0
c0c0
c0c0
c0c0
c0c0
c0c0
c0c0
ENDCHAR
STARTCHAR <unknown>
ENCODING 166
SWIDTH 42 0
DWIDTH 9 0
BBX 7 6 1 2
BITMAP
10
28
44
fe
00
fe
ENDCHAR
STARTCHAR <unknown>
ENCODING 167
SWIDTH 42 0
DWIDTH 6 0
BBX 4 15 1 -2
BITMAP
10
10
20
20
40
40
80
80
80
40
40
20
20
10
10
ENDCHAR
STARTCHAR <unknown>
ENCODING 168
SWIDTH 42 0
DWIDTH 6 0
BBX 4 14 1 -2
BITMAP
10
20
60
60
a0
a0
a0
a0
a0
a0
60
60
20
10
ENDCHAR
STARTCHAR <unknown>
ENCODING 169
SWIDTH 42 0
DWIDTH 6 0
BBX 4 14 1 -2
BITMAP
80
40
60
60
50
50
50
50
50
50
60
60
40
80
ENDCHAR
STARTCHAR <unknown>
ENCODING 170
SWIDTH 42 0
DWIDTH 16 0
BBX 14 7 1 2
BITMAP
1020
2010
4008
fffc
4008
2010
1020
ENDCHAR
STARTCHAR <unknown>
ENCODING 171
SWIDTH 42 0
DWIDTH 11 0
BBX 9 9 1 0
BITMAP
1c00
6b00
4900
8880
ff80
8880
4900
6b00
1c00
ENDCHAR
STARTCHAR <unknown>
ENCODING 172
SWIDTH 42 0
DWIDTH 10 0
BBX 8 8 1 3
BITMAP
ff
80
80
80
80
80
80
80
ENDCHAR
STARTCHAR <unknown>
ENCODING 173
SWIDTH 42 0
DWIDTH 13 0
BBX 12 7 1 2
BITMAP
0080
0040
0020
fff0
0020
0040
0080
ENDCHAR
STARTCHAR <unknown>
ENCODING 174
SWIDTH 42 0
DWIDTH 10 0
BBX 8 8 1 3
BITMAP
ff
01
01
01
01
01
01
01
ENDCHAR
STARTCHAR <unknown>
ENCODING 175
SWIDTH 42 0
DWIDTH 15 0
BBX 13 16 1 -4
BITMAP
f800
8000
f000
8000
b3b8
aa20
3330
2a20
2bb8
0000
0000
1dc0
1500
1d80
1500
1500
ENDCHAR
STARTCHAR <unknown>
ENCODING 176
SWIDTH 42 0
DWIDTH 11 0
BBX 9 9 1 0
BITMAP
ff80
ff80
ff80
ff80
ff80
ff80
ff80
ff80
ff80
ENDCHAR
STARTCHAR <unknown>
ENCODING 177
SWIDTH 42 0
DWIDTH 11 0
BBX 9 10 1 0
BITMAP
0800
0800
1400
1400
2200
2200
4100
4100
8080
8080
ENDCHAR
STARTCHAR <unknown>
ENCODING 178
SWIDTH 42 0
DWIDTH 11 0
BBX 9 10 1 0
BITMAP
8080
8080
4100
4100
2200
2200
1400
1400
0800
0800
ENDCHAR
STARTCHAR <unknown>
ENCODING 179
SWIDTH 42 0
DWIDTH 12 0
BBX 10 5 1 2
BITMAP
ffc0
0040
0040
0040
0040
ENDCHAR
STARTCHAR <unknown>
ENCODING 180
SWIDTH 42 0
DWIDTH 12 0
BBX 10 7 1 2
BITMAP
0200
0100
ff80
0040
ff80
0100
0200
ENDCHAR
STARTCHAR <unknown>
ENCODING 181
SWIDTH 42 0
DWIDTH 9 0
BBX 9 12 0 0
BITMAP
e380
4100
4100
2200
3e00
2200
1400
1400
1400
0800
0800
0800
ENDCHAR
STARTCHAR <unknown>
ENCODING 182
SWIDTH 42 0
DWIDTH 9 0
BBX 7 12 1 0
BITMAP
fe
84
04
04
04
7c
04
04
04
04
84
fe
ENDCHAR
STARTCHAR <unknown>
ENCODING 183
SWIDTH 42 0
DWIDTH 7 0
BBX 3 3 2 3
BITMAP
e0
e0
e0
ENDCHAR
STARTCHAR <unknown>
ENCODING 184
SWIDTH 42 0
DWIDTH 9 0
BBX 7 7 1 2
BITMAP
82
44
28
10
28
44
82
ENDCHAR
STARTCHAR <unknown>
ENCODING 185
SWIDTH 42 0
DWIDTH 10 0
BBX 8 16 1 -4
BITMAP
3c
42
81
99
a5
a5
a5
91
89
a5
a5
a5
99
81
42
3c
ENDCHAR
STARTCHAR <unknown>
ENCODING 186
SWIDTH 42 0
DWIDTH 7 0
BBX 5 12 1 -2
BITMAP
70
a8
f8
a8
70
00
00
70
a8
f8
a8
70
ENDCHAR
STARTCHAR <unknown>
ENCODING 187
SWIDTH 42 0
DWIDTH 9 0
BBX 5 15 2 -5
BITMAP
70
88
88
88
70
00
00
70
88
88
88
78
10
20
40
ENDCHAR
STARTCHAR <unknown>
ENCODING 188
SWIDTH 42 0
DWIDTH 10 0
BBX 8 12 1 -1
BITMAP
01
02
04
08
10
20
90
48
24
12
09
04
ENDCHAR
STARTCHAR <unknown>
ENCODING 189
SWIDTH 42 0
DWIDTH 10 0
BBX 8 7 1 2
BITMAP
02
04
ff
10
ff
20
40
ENDCHAR
STARTCHAR <unknown>
ENCODING 190
SWIDTH 42 0
DWIDTH 10 0
BBX 8 12 1 -1
BITMAP
80
40
20
10
08
04
09
12
24
48
90
20
ENDCHAR
STARTCHAR <unknown>
ENCODING 191
SWIDTH 42 0
DWIDTH 15 0
BBX 13 16 1 -4
BITMAP
f800
8000
f000
8000
b3b8
aa20
3330
2a20
2bb8
0000
0000
11c0
1100
1d80
1500
1d00
ENDCHAR
STARTCHAR <unknown>
ENCODING 192
SWIDTH 42 0
DWIDTH 9 0
BBX 7 8 1 0
BITMAP
82
82
82
82
82
82
c6
7c
ENDCHAR
STARTCHAR <unknown>
ENCODING 193
SWIDTH 42 0
DWIDTH 11 0
BBX 9 7 1 0
BITMAP
3000
4900
8500
8500
8200
4680
3980
ENDCHAR
STARTCHAR <unknown>
ENCODING 194
SWIDTH 42 0
DWIDTH 8 0
BBX 6 15 1 -3
BITMAP
38
44
84
84
84
f8
88
84
84
84
c8
b8
80
80
80
ENDCHAR
STARTCHAR <unknown>
ENCODING 195
SWIDTH 42 0
DWIDTH 14 0
BBX 12 11 1 -3
BITMAP
fff0
8000
8000
8000
8000
8000
8000
8000
fff0
0000
fff0
ENDCHAR
STARTCHAR <unknown>
ENCODING 196
SWIDTH 42 0
DWIDTH 7 0
BBX 5 12 1 0
BITMAP
70
88
80
80
40
30
50
88
88
88
48
30
ENDCHAR
STARTCHAR <unknown>
ENCODING 197
SWIDTH 42 0
DWIDTH 8 0
BBX 6 7 1 0
BITMAP
78
c0
f0
80
80
44
38
ENDCHAR
STARTCHAR <unknown>
ENCODING 198
SWIDTH 42 0
DWIDTH 9 0
BBX 7 15 1 -3
BITMAP
10
10
10
10
10
38
54
92
92
92
54
38
10
10
10
ENDCHAR
STARTCHAR <unknown>
ENCODING 199
SWIDTH 42 0
DWIDTH 10 0
BBX 8 10 1 -3
BITMAP
71
c9
85
06
02
02
02
02
02
02
ENDCHAR
STARTCHAR <unknown>
ENCODING 200
SWIDTH 42 0
DWIDTH 9 0
BBX 7 10 1 -3
BITMAP
cc
b2
a2
22
22
22
22
02
02
02
ENDCHAR
STARTCHAR <unknown>
ENCODING 201
SWIDTH 42 0
DWIDTH 5 0
BBX 3 7 1 0
BITMAP
80
80
80
80
a0
a0
c0
ENDCHAR
STARTCHAR <unknown>
ENCODING 202
SWIDTH 42 0
DWIDTH 7 0
BBX 5 12 1 0
BITMAP
20
50
88
88
88
f8
f8
88
88
88
50
20
ENDCHAR
STARTCHAR <unknown>
ENCODING 203
SWIDTH 42 0
DWIDTH 9 0
BBX 7 7 1 0
BITMAP
8c
90
e0
b0
8a
8a
86
ENDCHAR
STARTCHAR <unknown>
ENCODING 204
SWIDTH 42 0
DWIDTH 10 0
BBX 8 12 1 0
BITMAP
c0
20
20
10
10
08
08
0c
14
22
22
41
ENDCHAR
STARTCHAR <unknown>
ENCODING 205
SWIDTH 42 0
DWIDTH 9 0
BBX 7 10 1 -3
BITMAP
88
88
88
88
8a
9a
f6
80
80
80
ENDCHAR
STARTCHAR <unknown>
ENCODING 206
SWIDTH 42 0
DWIDTH 8 0
BBX 6 7 1 0
BITMAP
c4
44
44
48
48
50
60
ENDCHAR
STARTCHAR <unknown>
ENCODING 207
SWIDTH 42 0
DWIDTH 16 0
BBX 15 7 0 2
BITMAP
0490
0448
0424
fffe
0424
0448
0490
ENDCHAR
STARTCHAR <unknown>
ENCODING 208
SWIDTH 42 0
DWIDTH 10 0
BBX 8 7 1 0
BITMAP
7f
94
94
14
14
14
22
ENDCHAR
STARTCHAR <unknown>
ENCODING 209
SWIDTH 42 0
DWIDTH 12 0
BBX 10 10 1 -3
BITMAP
c100
a100
1200
1400
0c00
0c00
0a00
1200
2140
20c0
ENDCHAR
STARTCHAR <unknown>
ENCODING 210
SWIDTH 42 0
DWIDTH 7 0
BBX 5 10 1 -3
BITMAP
70
50
88
88
88
d0
f0
80
80
80
ENDCHAR
STARTCHAR <unknown>
ENCODING 211
SWIDTH 42 0
DWIDTH 9 0
BBX 7 7 1 0
BITMAP
3e
48
84
84
84
48
30
ENDCHAR
STARTCHAR <unknown>
ENCODING 212
SWIDTH 42 0
DWIDTH 9 0
BBX 7 7 1 0
BITMAP
7e
90
90
10
10
10
10
ENDCHAR
STARTCHAR <unknown>
ENCODING 213
SWIDTH 42 0
DWIDTH 10 0
BBX 8 7 1 0
BITMAP
62
a1
a1
21
21
22
1c
ENDCHAR
STARTCHAR <unknown>
ENCODING 214
SWIDTH 42 0
DWIDTH 15 0
BBX 13 16 1 -4
BITMAP
f800
8000
f000
8000
b3b8
aa20
3330
2a20
2bb8
0000
0000
05c0
0500
1dc0
1540
1dc0
ENDCHAR
STARTCHAR <unknown>
ENCODING 215
SWIDTH 42 0
DWIDTH 12 0
BBX 10 7 1 0
BITMAP
4080
8040
8440
8440
8440
4e80
3380
ENDCHAR
STARTCHAR <unknown>
ENCODING 216
SWIDTH 42 0
DWIDTH 8 0
BBX 6 15 1 -3
BITMAP
20
20
78
80
80
80
78
40
80
80
80
40
38
04
1c
ENDCHAR
STARTCHAR <unknown>
ENCODING 217
SWIDTH 42 0
DWIDTH 11 0
BBX 9 15 1 -3
BITMAP
0400
0400
0400
0400
0400
6500
a480
a480
2480
2480
1500
0e00
0400
0400
0400
ENDCHAR
STARTCHAR <unknown>
ENCODING 218
SWIDTH 42 0
DWIDTH 8 0
BBX 6 15 1 -3
BITMAP
20
20
38
40
40
80
80
80
80
80
40
60
1c
04
1c
ENDCHAR
STARTCHAR <unknown>
ENCODING 219
SWIDTH 42 0
DWIDTH 10 0
BBX 8 16 1 -4
BITMAP
f0
80
80
80
80
80
80
80
80
80
80
91
8a
e4
0a
11
ENDCHAR
STARTCHAR <unknown>
ENCODING 220
SWIDTH 42 0
DWIDTH 15 0
BBX 2 18 7 -5
BITMAP
c0
c0
c0
c0
c0
c0
c0
c0
c0
c0
c0
c0
c0
c0
c0
c0
c0
c0
ENDCHAR
STARTCHAR <unknown>
ENCODING 221
SWIDTH 42 0
DWIDTH 9 0
BBX 7 16 1 -4
BITMAP
1e
02
02
02
02
02
02
02
02
02
02
8a
52
26
50
88
ENDCHAR
STARTCHAR <unknown>
ENCODING 222
SWIDTH 42 0
DWIDTH 12 0
BBX 10 10 1 -1
BITMAP
c0c0
c0c0
c0c0
c0c0
c0c0
c0c0
c0c0
e1c0
7f80
3f00
ENDCHAR
STARTCHAR <unknown>
ENCODING 223
SWIDTH 42 0
DWIDTH 15 0
BBX 13 7 1 2
BITMAP
0440
0420
0410
fff8
0410
0420
0440
ENDCHAR
STARTCHAR <unknown>
ENCODING 224
SWIDTH 42 0
DWIDTH 15 0
BBX 13 7 1 2
BITMAP
8040
4020
2010
3ff8
2010
4020
8040
ENDCHAR
STARTCHAR <unknown>
ENCODING 225
SWIDTH 42 0
DWIDTH 7 0
BBX 5 9 1 0
BITMAP
08
18
28
48
f8
48
28
18
08
ENDCHAR
STARTCHAR <unknown>
ENCODING 226
SWIDTH 42 0
DWIDTH 13 0
BBX 11 11 1 0
BITMAP
0400
0400
0400
0400
0400
0400
0400
0400
0400
0400
ffe0
ENDCHAR
STARTCHAR <unknown>
ENCODING 227
SWIDTH 42 0
DWIDTH 15 0
BBX 13 16 1 -4
BITMAP
f800
8000
f000
8000
b3b8
aa20
3330
2a20
2bb8
0000
0000
1dc0
1040
18c0
1040
1dc0
ENDCHAR
STARTCHAR <unknown>
ENCODING 228
SWIDTH 42 0
DWIDTH 15 0
BBX 13 16 1 -4
BITMAP
f800
8000
f000
8000
b3b8
aa20
3330
2a20
2bb8
0000
0000
1d40
1140
19c0
1040
1c40
ENDCHAR
STARTCHAR <unknown>
ENCODING 229
SWIDTH 42 0
DWIDTH 15 0
BBX 13 16 1 -4
BITMAP
f800
8000
f000
8000
b3b8
aa20
3330
2a20
2bb8
0000
0000
1dc0
1100
19c0
1040
1dc0
ENDCHAR
STARTCHAR <unknown>
ENCODING 230
SWIDTH 42 0
DWIDTH 11 0
BBX 9 12 1 0
BITMAP
ff80
9080
9000
9000
9000
9f00
9000
9000
9000
9000
9000
f800
ENDCHAR
STARTCHAR <unknown>
ENCODING 231
SWIDTH 42 0
DWIDTH 13 0
BBX 11 11 1 0
BITMAP
03e0
0060
00a0
0120
0220
0400
0800
1000
2000
4000
8000
ENDCHAR
STARTCHAR <unknown>
ENCODING 232
SWIDTH 42 0
DWIDTH 12 0
BBX 10 10 1 1
BITMAP
8000
4000
2000
1000
0800
0440
0240
0140
00c0
07c0
ENDCHAR
STARTCHAR <unknown>
ENCODING 233
SWIDTH 42 0
DWIDTH 14 0
BBX 13 7 1 0
BITMAP
fff8
0000
0000
fff8
0000
0000
fff8
ENDCHAR
STARTCHAR <unknown>
ENCODING 234
SWIDTH 42 0
DWIDTH 9 0
BBX 7 13 1 -1
BITMAP
10
38
54
92
10
10
10
10
10
92
54
38
10
ENDCHAR
STARTCHAR <unknown>
ENCODING 235
SWIDTH 42 0
DWIDTH 10 0
BBX 9 4 1 7
BITMAP
0800
3600
4100
8080
ENDCHAR
STARTCHAR <unknown>
ENCODING 236
SWIDTH 42 0
DWIDTH 15 0
BBX 13 16 1 -4
BITMAP
f800
8000
f000
8000
b3b8
aa20
3330
2a20
2bb8
0000
0000
1dc0
1140
1900
1140
1dc0
ENDCHAR
STARTCHAR <unknown>
ENCODING 237
SWIDTH 42 0
DWIDTH 15 0
BBX 13 7 1 2
BITMAP
8040
8020
8010
fff8
8010
8020
8040
ENDCHAR
STARTCHAR <unknown>
ENCODING 238
SWIDTH 42 0
DWIDTH 11 0
BBX 10 12 1 0
BITMAP
f1c0
5080
6880
6880
5480
5480
4a80
4a80
4580
4580
4280
e380
ENDCHAR
STARTCHAR <unknown>
ENCODING 239
SWIDTH 42 0
DWIDTH 15 0
BBX 13 7 1 2
BITMAP
0240
0120
0090
fff8
0090
0120
0240
ENDCHAR
STARTCHAR <unknown>
ENCODING 240
SWIDTH 42 0
DWIDTH 11 0
BBX 9 12 1 0
BITMAP
ff00
9180
9080
9080
9080
9100
9600
9000
9000
9000
9000
f800
ENDCHAR
STARTCHAR <unknown>
ENCODING 241
SWIDTH 42 0
DWIDTH 10 0
BBX 8 15 1 -4
BITMAP
ff
80
80
80
80
80
80
80
00
7e
44
08
10
26
7e
ENDCHAR
STARTCHAR <unknown>
ENCODING 242
SWIDTH 42 0
DWIDTH 7 0
BBX 5 9 1 0
BITMAP
08
18
28
48
88
48
28
18
08
ENDCHAR
STARTCHAR <unknown>
ENCODING 243
SWIDTH 42 0
DWIDTH 15 0
BBX 13 16 1 -4
BITMAP
f800
8000
f000
8000
b3b8
aa20
3330
2a20
2bb8
0000
0000
1dc0
1040
18c0
1040
1dc0
ENDCHAR
STARTCHAR <unknown>
ENCODING 244
SWIDTH 42 0
DWIDTH 7 0
BBX 6 9 1 1
BITMAP
80
80
80
80
fc
80
80
80
80
ENDCHAR
STARTCHAR <unknown>
ENCODING 245
SWIDTH 42 0
DWIDTH 15 0
BBX 13 16 1 -4
BITMAP
f800
8000
f000
8000
b3b8
aa20
3330
2a20
2bb8
0000
0000
1dc0
1100
19c0
1040
11c0
ENDCHAR
STARTCHAR <unknown>
ENCODING 246
SWIDTH 42 0
DWIDTH 15 0
BBX 13 16 1 -4
BITMAP
f800
8000
f000
8000
b3b8
aa20
3330
2a20
2bb8
0000
0000
1dc0
1100
19c0
1140
11c0
ENDCHAR
STARTCHAR <unknown>
ENCODING 247
SWIDTH 42 0
DWIDTH 15 0
BBX 8 18 7 -5
BITMAP
c0
c0
c0
c0
c0
c0
c0
c0
ff
ff
c0
c0
c0
c0
c0
c0
c0
c0
ENDCHAR
STARTCHAR <unknown>
ENCODING 248
SWIDTH 42 0
DWIDTH 15 0
BBX 13 16 1 -4
BITMAP
f800
8000
f000
8000
b3b8
aa20
3330
2a20
2bb8
0000
0000
1dc0
1140
19c0
1140
11c0
ENDCHAR
STARTCHAR <unknown>
ENCODING 249
SWIDTH 42 0
DWIDTH 8 0
BBX 4 13 2 -1
BITMAP
80
80
c0
c0
a0
90
80
80
80
80
80
80
80
ENDCHAR
STARTCHAR <unknown>
ENCODING 250
SWIDTH 42 0
DWIDTH 9 0
BBX 7 12 1 0
BITMAP
fe
8a
8a
14
14
28
28
50
50
a2
a2
fe
ENDCHAR
STARTCHAR <unknown>
ENCODING 251
SWIDTH 42 0
DWIDTH 7 0
BBX 5 14 1 -2
BITMAP
f8
a0
a0
a0
a0
a0
a0
a0
a0
a0
a0
a0
a0
f8
ENDCHAR
STARTCHAR <unknown>
ENCODING 252
SWIDTH 42 0
DWIDTH 15 0
BBX 15 2 0 3
BITMAP
fffe
fffe
ENDCHAR
STARTCHAR <unknown>
ENCODING 253
SWIDTH 42 0
DWIDTH 7 0
BBX 5 14 1 -2
BITMAP
f8
28
28
28
28
28
28
28
28
28
28
28
28
f8
ENDCHAR
STARTCHAR <unknown>
ENCODING 254
SWIDTH 42 0
DWIDTH 15 0
BBX 13 7 1 2
BITMAP
8240
4220
2210
3ff8
2210
4220
8240
ENDCHAR
STARTCHAR <unknown>
ENCODING 255
SWIDTH 42 0
DWIDTH 15 0
BBX 8 10 7 -5
BITMAP
ff
ff
c0
c0
c0
c0
c0
c0
c0
c0
ENDCHAR
ENDFONT
